<mxfile host="app.diagrams.net" agent="Mozilla/5.0 (Windows NT 10.0; Win64; x64) AppleWebKit/537.36 (KHTML, like Gecko) Chrome/129.0.0.0 Safari/537.36" version="24.7.17">
  <diagram name="Страница — 1" id="2dHDmkU6oCWq-XEGlKxD">
    <mxGraphModel grid="1" page="1" gridSize="10" guides="1" tooltips="1" connect="1" arrows="1" fold="1" pageScale="1" pageWidth="827" pageHeight="1169" math="0" shadow="0">
      <root>
        <mxCell id="0" />
        <mxCell id="1" parent="0" />
        <mxCell id="FQ0_O6sxlsVky0RWdoEz-2" value="&lt;b&gt;&lt;font style=&quot;font-size: 18px;&quot;&gt;Заголовок&lt;/font&gt;&lt;/b&gt;" style="rounded=0;whiteSpace=wrap;html=1;" vertex="1" parent="1">
          <mxGeometry x="74" y="170" width="246" height="90" as="geometry" />
        </mxCell>
        <mxCell id="FQ0_O6sxlsVky0RWdoEz-3" value="&lt;font style=&quot;font-size: 14px;&quot;&gt;&lt;i&gt;Добавление видео в&amp;nbsp; список избранное&lt;/i&gt;&lt;/font&gt;" style="rounded=0;whiteSpace=wrap;html=1;" vertex="1" parent="1">
          <mxGeometry x="320" y="170" width="440" height="90" as="geometry" />
        </mxCell>
        <mxCell id="FQ0_O6sxlsVky0RWdoEz-5" value="&lt;b style=&quot;&quot;&gt;&lt;font style=&quot;font-size: 18px;&quot;&gt;Акторы&lt;/font&gt;&lt;/b&gt;" style="rounded=0;whiteSpace=wrap;html=1;" vertex="1" parent="1">
          <mxGeometry x="74" y="260" width="246" height="90" as="geometry" />
        </mxCell>
        <mxCell id="FQ0_O6sxlsVky0RWdoEz-6" value="&lt;b style=&quot;&quot;&gt;&lt;font style=&quot;font-size: 18px;&quot;&gt;Предусловие&lt;/font&gt;&lt;/b&gt;" style="rounded=0;whiteSpace=wrap;html=1;" vertex="1" parent="1">
          <mxGeometry x="74" y="350" width="246" height="90" as="geometry" />
        </mxCell>
        <mxCell id="FQ0_O6sxlsVky0RWdoEz-7" value="&lt;b style=&quot;&quot;&gt;&lt;font style=&quot;font-size: 18px;&quot;&gt;Ограничение&lt;/font&gt;&lt;/b&gt;" style="rounded=0;whiteSpace=wrap;html=1;" vertex="1" parent="1">
          <mxGeometry x="74" y="440" width="246" height="90" as="geometry" />
        </mxCell>
        <mxCell id="FQ0_O6sxlsVky0RWdoEz-8" value="&lt;b style=&quot;&quot;&gt;&lt;font style=&quot;font-size: 18px;&quot;&gt;Триггер&lt;/font&gt;&lt;/b&gt;" style="rounded=0;whiteSpace=wrap;html=1;" vertex="1" parent="1">
          <mxGeometry x="74" y="530" width="246" height="120" as="geometry" />
        </mxCell>
        <mxCell id="FQ0_O6sxlsVky0RWdoEz-9" value="&lt;b style=&quot;&quot;&gt;&lt;font style=&quot;font-size: 18px;&quot;&gt;Основной&lt;/font&gt;&lt;/b&gt;&lt;div&gt;&lt;font style=&quot;font-size: 18px;&quot;&gt;&lt;b&gt;сценарий&lt;/b&gt;&lt;/font&gt;&lt;/div&gt;" style="rounded=0;whiteSpace=wrap;html=1;" vertex="1" parent="1">
          <mxGeometry x="74" y="650" width="246" height="210" as="geometry" />
        </mxCell>
        <mxCell id="FQ0_O6sxlsVky0RWdoEz-10" value="&lt;b style=&quot;&quot;&gt;&lt;font style=&quot;font-size: 18px;&quot;&gt;Альтернативный&lt;/font&gt;&lt;/b&gt;&lt;div&gt;&lt;font style=&quot;font-size: 18px;&quot;&gt;&lt;b&gt;сценарий&lt;/b&gt;&lt;/font&gt;&lt;/div&gt;" style="rounded=0;whiteSpace=wrap;html=1;" vertex="1" parent="1">
          <mxGeometry x="74" y="860" width="246" height="190" as="geometry" />
        </mxCell>
        <mxCell id="FQ0_O6sxlsVky0RWdoEz-11" value="&lt;b style=&quot;&quot;&gt;&lt;font style=&quot;font-size: 18px;&quot;&gt;Результат/Критерии&amp;nbsp;&lt;/font&gt;&lt;/b&gt;&lt;div&gt;&lt;b style=&quot;&quot;&gt;&lt;font style=&quot;font-size: 18px;&quot;&gt;успеха&lt;/font&gt;&lt;/b&gt;&lt;/div&gt;" style="rounded=0;whiteSpace=wrap;html=1;" vertex="1" parent="1">
          <mxGeometry x="74" y="1050" width="246" height="90" as="geometry" />
        </mxCell>
        <mxCell id="FQ0_O6sxlsVky0RWdoEz-12" value="&lt;span style=&quot;font-size: 14px;&quot;&gt;&lt;i&gt;1. Пользователь веб-сервиса&lt;/i&gt;&lt;/span&gt;&lt;div style=&quot;text-align: justify;&quot;&gt;&lt;span style=&quot;font-size: 14px;&quot;&gt;&lt;i&gt;2. Cистема&lt;/i&gt;&lt;/span&gt;&lt;/div&gt;" style="rounded=0;whiteSpace=wrap;html=1;" vertex="1" parent="1">
          <mxGeometry x="320" y="260" width="440" height="90" as="geometry" />
        </mxCell>
        <mxCell id="FQ0_O6sxlsVky0RWdoEz-13" value="&lt;i&gt;&lt;font style=&quot;font-size: 14px;&quot;&gt;&amp;nbsp;Пользователь зарегистрирован и&amp;nbsp;&lt;/font&gt;&lt;/i&gt;&lt;div&gt;&lt;i&gt;&lt;font style=&quot;font-size: 14px;&quot;&gt;авторизован в веб-сервисе&lt;/font&gt;&lt;/i&gt;&lt;/div&gt;" style="rounded=0;whiteSpace=wrap;html=1;" vertex="1" parent="1">
          <mxGeometry x="320" y="350" width="440" height="90" as="geometry" />
        </mxCell>
        <mxCell id="FQ0_O6sxlsVky0RWdoEz-14" value="&lt;font style=&quot;font-size: 14px;&quot;&gt;&lt;i&gt;Видео не должно находиться уже в списке избранных&lt;/i&gt;&lt;/font&gt;" style="rounded=0;whiteSpace=wrap;html=1;" vertex="1" parent="1">
          <mxGeometry x="320" y="440" width="440" height="90" as="geometry" />
        </mxCell>
        <mxCell id="FQ0_O6sxlsVky0RWdoEz-15" value="&lt;div style=&quot;text-align: justify;&quot;&gt;&lt;i style=&quot;font-size: 14px; background-color: initial;&quot;&gt;1. Пользователь нажимает кнопку добавления&lt;/i&gt;&lt;/div&gt;&lt;div style=&quot;text-align: justify;&quot;&gt;&lt;span style=&quot;font-size: 14px;&quot;&gt;&lt;i&gt;&amp;nbsp; &amp;nbsp; &amp;nbsp; &amp;nbsp; видео в избранное&lt;/i&gt;&lt;/span&gt;&lt;/div&gt;&lt;div style=&quot;text-align: justify;&quot;&gt;&lt;span style=&quot;font-size: 14px;&quot;&gt;&lt;i&gt;2. Пользователь нажимает сердечко в углу&lt;/i&gt;&lt;/span&gt;&lt;/div&gt;&lt;div style=&quot;text-align: justify;&quot;&gt;&lt;span style=&quot;font-size: 14px;&quot;&gt;&lt;i&gt;&amp;nbsp; &amp;nbsp; &amp;nbsp; &amp;nbsp; видео&lt;/i&gt;&lt;/span&gt;&lt;/div&gt;" style="rounded=0;whiteSpace=wrap;html=1;" vertex="1" parent="1">
          <mxGeometry x="320" y="530" width="440" height="120" as="geometry" />
        </mxCell>
        <mxCell id="FQ0_O6sxlsVky0RWdoEz-16" value="&lt;font style=&quot;font-size: 14px;&quot;&gt;&lt;i&gt;1. Система отображает главную страницу веб-сервиса&lt;/i&gt;&lt;/font&gt;&lt;div style=&quot;text-align: justify;&quot;&gt;&lt;i&gt;&lt;font style=&quot;&quot;&gt;&lt;span style=&quot;font-size: 14px;&quot;&gt;&amp;nbsp;&lt;/span&gt;&lt;font style=&quot;font-size: 14px;&quot;&gt;2. Пользователь выбирает видео и нажимает на него&lt;/font&gt;&lt;/font&gt;&lt;/i&gt;&lt;/div&gt;&lt;div style=&quot;text-align: justify;&quot;&gt;&lt;i&gt;&lt;font style=&quot;font-size: 14px;&quot;&gt;&amp;nbsp;3. Система отображает странницу с выбранным видео&lt;/font&gt;&lt;/i&gt;&lt;/div&gt;&lt;div style=&quot;text-align: justify;&quot;&gt;&lt;i&gt;&lt;font style=&quot;font-size: 14px;&quot;&gt;&amp;nbsp;4. Пользователь нажимает на кнопку добавить&lt;/font&gt;&lt;/i&gt;&lt;/div&gt;&lt;div style=&quot;text-align: justify;&quot;&gt;&lt;i&gt;&lt;font style=&quot;font-size: 14px;&quot;&gt;&amp;nbsp;5. Система меняет цвет кнопки добавить на зеленый и&lt;/font&gt;&lt;/i&gt;&lt;/div&gt;&lt;div style=&quot;text-align: justify;&quot;&gt;&lt;i&gt;&lt;font style=&quot;font-size: 14px;&quot;&gt;&amp;nbsp; &amp;nbsp; &amp;nbsp; &amp;nbsp; добавляет видео в список &quot;избранное&quot;&lt;/font&gt;&lt;/i&gt;&lt;/div&gt;&lt;div style=&quot;text-align: justify;&quot;&gt;&lt;i&gt;&lt;font style=&quot;font-size: 14px;&quot;&gt;&amp;nbsp;6. Пользователь нажимает кнопку &quot;избранное&quot;&amp;nbsp;&lt;/font&gt;&lt;/i&gt;&lt;/div&gt;&lt;div style=&quot;text-align: justify;&quot;&gt;&lt;i&gt;&lt;font style=&quot;font-size: 14px;&quot;&gt;&amp;nbsp;7. Система отображает список &quot;избранное&quot;&lt;/font&gt;&lt;/i&gt;&lt;/div&gt;&lt;div style=&quot;text-align: justify;&quot;&gt;&lt;i&gt;&lt;font style=&quot;font-size: 14px;&quot;&gt;&amp;nbsp;8. Пользователь находит видео, которое добавил,&lt;/font&gt;&lt;/i&gt;&lt;/div&gt;&lt;div style=&quot;text-align: justify;&quot;&gt;&lt;i&gt;&lt;font style=&quot;font-size: 14px;&quot;&gt;&amp;nbsp; &amp;nbsp; &amp;nbsp; &amp;nbsp; в списке &quot;избранное&quot;&lt;/font&gt;&lt;/i&gt;&lt;/div&gt;" style="rounded=0;whiteSpace=wrap;html=1;align=center;" vertex="1" parent="1">
          <mxGeometry x="320" y="650" width="440" height="210" as="geometry" />
        </mxCell>
        <mxCell id="FQ0_O6sxlsVky0RWdoEz-18" value="&lt;i&gt;&lt;font style=&quot;font-size: 14px;&quot;&gt;Видео успешно добавлено в избранное и отображается&amp;nbsp;&lt;/font&gt;&lt;/i&gt;&lt;div&gt;&lt;i&gt;&lt;font style=&quot;font-size: 14px;&quot;&gt;в соотвецтвующем отделе&lt;/font&gt;&lt;/i&gt;&lt;/div&gt;" style="rounded=0;whiteSpace=wrap;html=1;" vertex="1" parent="1">
          <mxGeometry x="320" y="1050" width="440" height="90" as="geometry" />
        </mxCell>
        <mxCell id="FQ0_O6sxlsVky0RWdoEz-19" value="&lt;div style=&quot;text-align: justify;&quot;&gt;&lt;i&gt;&lt;font style=&quot;&quot;&gt;&lt;font style=&quot;font-size: 14px;&quot;&gt;2a. Пользователь выбирает видео и нажимает&amp;nbsp;&lt;/font&gt;&lt;/font&gt;&lt;/i&gt;&lt;/div&gt;&lt;div style=&quot;text-align: justify;&quot;&gt;&lt;i&gt;&lt;font style=&quot;&quot;&gt;&lt;font style=&quot;font-size: 14px;&quot;&gt;&amp;nbsp; &amp;nbsp; &amp;nbsp; &amp;nbsp; &amp;nbsp; на сердечко в углу видео&amp;nbsp;&lt;/font&gt;&lt;/font&gt;&lt;/i&gt;&lt;/div&gt;&lt;div style=&quot;text-align: justify;&quot;&gt;&lt;i&gt;&lt;font style=&quot;font-size: 14px;&quot;&gt;3a. Система меняет цвет сердечка на красный&amp;nbsp;&lt;/font&gt;&lt;/i&gt;&lt;/div&gt;&lt;div style=&quot;text-align: justify;&quot;&gt;&lt;i&gt;&lt;font style=&quot;font-size: 14px;&quot;&gt;&amp;nbsp; &amp;nbsp; &amp;nbsp; &amp;nbsp; &amp;nbsp; и добавляет видео в список &quot;избранное&quot;&lt;/font&gt;&lt;/i&gt;&lt;/div&gt;&lt;div style=&quot;text-align: justify;&quot;&gt;&lt;i&gt;&lt;font style=&quot;font-size: 14px;&quot;&gt;4a. Пользователь нажимает кнопку избранное&amp;nbsp;&lt;/font&gt;&lt;/i&gt;&lt;/div&gt;&lt;div style=&quot;text-align: justify;&quot;&gt;&lt;i&gt;&lt;font style=&quot;font-size: 14px;&quot;&gt;5a. Система отображает страницу&amp;nbsp;&lt;/font&gt;&lt;/i&gt;&lt;/div&gt;&lt;div style=&quot;text-align: justify;&quot;&gt;&lt;i&gt;&lt;font style=&quot;font-size: 14px;&quot;&gt;&amp;nbsp; &amp;nbsp; &amp;nbsp; &amp;nbsp; &amp;nbsp;список избранное&lt;/font&gt;&lt;/i&gt;&lt;/div&gt;&lt;div style=&quot;text-align: justify;&quot;&gt;&lt;i&gt;&lt;font style=&quot;font-size: 14px;&quot;&gt;6a. Пользователь находит видео, которое добавил,&lt;/font&gt;&lt;/i&gt;&lt;/div&gt;&lt;div style=&quot;text-align: justify;&quot;&gt;&lt;i&gt;&lt;font style=&quot;font-size: 14px;&quot;&gt;&amp;nbsp; &amp;nbsp; &amp;nbsp; &amp;nbsp; &amp;nbsp;в&amp;nbsp; списке &quot;избранное&quot;&lt;/font&gt;&lt;/i&gt;&lt;/div&gt;" style="rounded=0;whiteSpace=wrap;html=1;align=center;" vertex="1" parent="1">
          <mxGeometry x="320" y="860" width="440" height="190" as="geometry" />
        </mxCell>
      </root>
    </mxGraphModel>
  </diagram>
</mxfile>
